HIERARCHY
ROOT Hips
{
	OFFSET -0.001795 -0.223333 0.028219
	CHANNELS 6 Xposition Yposition Zposition Zrotation Yrotation Xrotation 
	JOINT LeftUpLeg
	{
		OFFSET 0.069520 -0.091406 -0.006815
		CHANNELS 3 Zrotation Yrotation Xrotation
		JOINT LeftLeg
		{
			OFFSET 0.034277 -0.375199 -0.004496
			CHANNELS 3 Zrotation Yrotation Xrotation
			JOINT LeftFoot
			{
				OFFSET -0.013596 -0.397961 -0.043693
				CHANNELS 3 Zrotation Yrotation Xrotation
				JOINT LeftToe
				{
					OFFSET 0.026358 -0.055791 0.119288
					CHANNELS 3 Zrotation Yrotation Xrotation
					End Site
					{
						OFFSET 0.000000 0.000000 0.000000
					}
				}
			}
		}
	}
	JOINT RightUpLeg
	{
		OFFSET -0.067670 -0.090522 -0.004320
		CHANNELS 3 Zrotation Yrotation Xrotation
		JOINT RightLeg
		{
			OFFSET -0.038290 -0.382569 -0.008850
			CHANNELS 3 Zrotation Yrotation Xrotation
			JOINT RightFoot
			{
				OFFSET 0.015774 -0.398415 -0.042312
				CHANNELS 3 Zrotation Yrotation Xrotation
				JOINT RightToe
				{
					OFFSET -0.025372 -0.048144 0.123348
					CHANNELS 3 Zrotation Yrotation Xrotation
					End Site
					{
						OFFSET 0.000000 0.000000 0.000000
					}
				}
			}
		}
	}
	JOINT Spine
	{
		OFFSET -0.002533 0.108963 -0.026696
		CHANNELS 3 Zrotation Yrotation Xrotation
		JOINT Spine1
		{
			OFFSET 0.005487 0.135180 0.001092
			CHANNELS 3 Zrotation Yrotation Xrotation
			JOINT Spine2
			{
				OFFSET 0.001457 0.052922 0.025425
				CHANNELS 3 Zrotation Yrotation Xrotation
				JOINT Neck
				{
					OFFSET -0.002778 0.213870 -0.042857
					CHANNELS 3 Zrotation Yrotation Xrotation
					JOINT Head
					{
						OFFSET 0.005152 0.064970 0.051349
						CHANNELS 3 Zrotation Yrotation Xrotation
						End Site
						{
							OFFSET 0.000000 0.000000 0.000000
						}
					}
				}
				JOINT LeftShoulder
				{
					OFFSET 0.078845 0.121749 -0.034090
					CHANNELS 3 Zrotation Yrotation Xrotation
					JOINT LeftArm
					{
						OFFSET 0.090977 0.030469 -0.008868
						CHANNELS 3 Zrotation Yrotation Xrotation
						JOINT LeftForeArm
						{
							OFFSET 0.259612 -0.012772 -0.027456
							CHANNELS 3 Zrotation Yrotation Xrotation
							JOINT LeftHand
							{
								OFFSET 0.249234 0.008986 -0.001171
								CHANNELS 3 Zrotation Yrotation Xrotation
								End Site
								{
									OFFSET 0.000000 0.000000 0.000000
								}
							}
						}
					}
				}
				JOINT RightShoulder
				{
					OFFSET -0.081759 0.118833 -0.038615
					CHANNELS 3 Zrotation Yrotation Xrotation
					JOINT RightArm
					{
						OFFSET -0.096012 0.032551 -0.009143
						CHANNELS 3 Zrotation Yrotation Xrotation
						JOINT RightForeArm
						{
							OFFSET -0.253742 -0.013329 -0.021401
							CHANNELS 3 Zrotation Yrotation Xrotation
							JOINT RightHand
							{
								OFFSET -0.255298 0.007772 -0.005559
								CHANNELS 3 Zrotation Yrotation Xrotation
								End Site
								{
									OFFSET 0.000000 0.000000 0.000000
								}
							}
						}
					}
				}
			}
		}
	}
}
MOTION
Frames: 13
Frame Time: 0.050000
-0.002641 0.925197 -0.007253 -0.920258 12.536633 8.916140 8.499126 -1.394622 -23.282653 -11.520521 1.535781 15.240586 15.467435 28.740079 15.607431 0.000000 0.000000 0.000000 -6.823143 0.299707 -29.634415 7.765491 -2.089380 17.783213 -4.709114 -12.499858 15.173898 0.000000 0.000000 0.000000 6.030391 -5.531962 36.840076 -3.003358 1.529192 -21.790163 -5.610769 5.547000 25.250338 20.267513 -8.019864 -28.093633 0.000000 0.000000 0.000000 -13.123340 -32.331777 12.577868 -14.800156 -34.306552 -0.086357 47.144591 -64.472260 -29.600401 0.000000 0.000000 0.000000 27.457675 11.981064 10.559121 28.837047 54.084225 6.715066 -24.143683 68.086268 -9.720879 0.000000 0.000000 0.000000 
-0.002511 0.924971 -0.007459 -0.979701 12.373393 9.024002 8.726711 -1.367397 -23.459240 -11.808022 1.606578 15.307433 15.591757 28.892315 15.714420 0.000000 0.000000 0.000000 -6.664873 0.356561 -29.796068 7.593068 -2.024611 17.779180 -4.654120 -12.423624 15.121997 0.000000 0.000000 0.000000 6.155319 -5.573394 36.888970 -3.121047 1.548919 -22.002834 -5.609260 5.576708 25.255604 20.515515 -8.429370 -27.271733 0.000000 0.000000 0.000000 -13.144555 -32.350610 12.612098 -15.218125 -34.341445 -0.010582 46.297195 -65.356446 -29.452460 0.000000 0.000000 0.000000 27.692552 12.094210 10.671814 28.495754 54.334774 6.611942 -22.349240 67.956587 -8.538837 0.000000 0.000000 0.000000 
-0.002257 0.924816 -0.007422 -0.966355 12.385972 9.056675 8.744077 -1.369240 -23.504484 -11.888702 1.622595 15.328165 15.599559 28.908768 15.681044 0.000000 0.000000 0.000000 -6.558704 0.385027 -29.747231 7.360098 -1.945714 17.668427 -4.675147 -12.448871 15.015602 0.000000 0.000000 0.000000 6.287278 -5.640049 36.945069 -3.177732 1.561584 -21.972743 -5.654591 5.537834 25.223587 20.562382 -8.589747 -26.817235 0.000000 0.000000 0.000000 -13.021714 -32.329224 12.591284 -15.936661 -34.371280 0.127893 45.678142 -66.346442 -29.529790 0.000000 0.000000 0.000000 27.428549 12.200543 10.674171 28.608644 54.461683 6.727514 -21.519143 68.014340 -7.991684 0.000000 0.000000 0.000000 
-0.001928 0.924878 -0.007096 -0.948146 12.432064 9.116100 8.770252 -1.364934 -23.438313 -11.993511 1.633093 15.133194 15.569119 28.875801 15.632947 0.000000 0.000000 0.000000 -6.428180 0.418837 -29.647010 7.071381 -1.845814 17.465429 -4.708506 -12.491796 14.936588 0.000000 0.000000 0.000000 6.419379 -5.685219 36.863637 -3.244637 1.577175 -21.936463 -5.720481 5.575133 25.133878 20.694450 -8.889802 -26.086801 0.000000 0.000000 0.000000 -13.288165 -32.243752 12.580348 -16.558767 -34.118992 0.240730 45.010306 -67.283811 -29.545336 0.000000 0.000000 0.000000 27.350793 12.217201 10.695862 28.530644 54.572489 6.729525 -20.524343 67.928822 -7.309609 0.000000 0.000000 0.000000 
-0.001493 0.925287 -0.006586 -0.893488 12.447015 9.184342 8.762211 -1.361711 -23.336756 -12.111170 1.645636 14.898452 15.532508 28.821306 15.704156 0.000000 0.000000 0.000000 -6.359403 0.437299 -29.584268 6.817851 -1.761349 17.338154 -4.710856 -12.491216 14.960758 0.000000 0.000000 0.000000 6.614439 -5.732628 36.693761 -3.469165 1.630323 -21.840258 -5.683716 5.563905 25.134988 20.640575 -8.878991 -26.000006 0.000000 0.000000 0.000000 -13.717754 -31.903662 12.481305 -17.667255 -33.855643 0.436761 43.730737 -68.543774 -29.251077 0.000000 0.000000 0.000000 27.134715 12.087590 10.559732 28.473231 54.441602 6.685686 -19.234813 68.106032 -6.488611 0.000000 0.000000 0.000000 
-0.000977 0.925287 -0.006108 -0.752323 12.574025 9.245660 8.661027 -1.375594 -23.205016 -12.245101 1.651683 14.633832 15.449642 28.726616 15.600915 0.000000 0.000000 0.000000 -6.449922 0.402856 -29.483612 6.664395 -1.715219 17.223226 -4.773246 -12.573825 14.860592 0.000000 0.000000 0.000000 6.763404 -5.813290 36.715560 -3.727307 1.691452 -21.917569 -5.629053 5.660381 25.239226 20.731667 -8.897407 -26.084537 0.000000 0.000000 0.000000 -14.142822 -31.701280 12.413386 -18.393098 -33.629141 0.556575 42.957199 -69.561157 -29.217172 0.000000 0.000000 0.000000 26.821285 11.846118 10.384232 28.536819 54.343152 6.699949 -18.525663 68.087403 -5.992487 0.000000 0.000000 0.000000 
-0.000449 0.925069 -0.005767 -0.627599 12.813468 9.268062 8.432426 -1.405231 -22.985841 -12.142383 1.601522 14.277327 15.307917 28.573891 15.281318 0.000000 0.000000 0.000000 -6.521929 0.361453 -29.395277 6.489902 -1.676690 17.214540 -4.887993 -12.732384 14.730264 0.000000 0.000000 0.000000 6.959126 -5.922541 36.708795 -3.738531 1.702369 -21.700966 -5.729467 5.810952 25.038972 20.895205 -9.105348 -25.607885 0.000000 0.000000 0.000000 -14.777767 -31.433028 12.303907 -18.943864 -33.096081 0.643595 41.961788 -70.155777 -28.820473 0.000000 0.000000 0.000000 26.519225 11.747523 10.337771 28.204535 54.178663 6.545442 -18.021135 67.822106 -5.636731 0.000000 0.000000 0.000000 
0.000010 0.924696 -0.005527 -0.492391 13.024152 9.387149 8.305065 -1.432146 -22.936613 -12.214257 1.590312 14.008464 15.202585 28.468290 15.034580 0.000000 0.000000 0.000000 -6.639832 0.307888 -29.468063 6.377690 -1.659429 17.283435 -4.993232 -12.882019 14.600632 0.000000 0.000000 0.000000 7.166757 -6.034867 36.695578 -3.977053 1.758763 -21.767634 -5.664856 5.931358 25.069302 21.114587 -9.250641 -25.494125 0.000000 0.000000 0.000000 -15.279654 -31.206382 12.208095 -19.424253 -32.659614 0.704030 41.051771 -70.639675 -28.409834 0.000000 0.000000 0.000000 26.214144 11.483428 10.174176 28.194939 54.271158 6.587936 -17.966112 67.349694 -5.518306 0.000000 0.000000 0.000000 
0.000405 0.924388 -0.005376 -0.346826 13.251234 9.528700 8.152508 -1.455475 -22.778167 -12.255975 1.562833 13.503764 15.075108 28.331866 14.749342 0.000000 0.000000 0.000000 -6.738633 0.258665 -29.455901 6.221233 -1.617447 17.163910 -5.109674 -13.046711 14.462642 0.000000 0.000000 0.000000 7.249519 -6.093449 36.658801 -3.996825 1.768895 -21.670668 -5.712669 6.006609 24.962410 21.199658 -9.302274 -25.386788 0.000000 0.000000 0.000000 -15.505605 -30.988227 12.077691 -19.654785 -32.179794 0.714809 40.107280 -70.806601 -27.829087 0.000000 0.000000 0.000000 26.018537 11.538044 10.235127 27.831038 54.425650 6.493956 -18.753240 66.586649 -5.948601 0.000000 0.000000 0.000000 
0.000674 0.924325 -0.005326 -0.197969 13.487594 9.604639 8.020242 -1.473438 -22.600804 -12.329609 1.542581 13.072188 14.922308 28.150476 14.565075 0.000000 0.000000 0.000000 -6.849843 0.207011 -29.400525 6.092602 -1.586912 17.082939 -5.217752 -13.200294 14.404695 0.000000 0.000000 0.000000 7.346249 -6.166407 36.657885 -4.087578 1.792207 -21.712063 -5.697081 6.124920 24.924745 21.342737 -9.127524 -26.095306 0.000000 0.000000 0.000000 -15.884334 -30.932583 12.038307 -19.709796 -31.803053 0.708101 39.263829 -71.080870 -27.369196 0.000000 0.000000 0.000000 25.936376 11.438703 10.229456 27.335701 54.794323 6.384915 -19.450270 65.581471 -6.291233 0.000000 0.000000 0.000000 
0.000834 0.924290 -0.005450 -0.080882 13.595189 9.640690 7.939089 -1.477904 -22.435715 -12.428329 1.537541 12.727953 14.841986 28.049945 14.473771 0.000000 0.000000 0.000000 -6.971173 0.164403 -29.372423 6.060879 -1.581171 17.046842 -5.264398 -13.265852 14.376927 0.000000 0.000000 0.000000 7.325954 -6.218253 36.861669 -4.005863 1.768141 -21.909844 -5.729482 6.358324 25.026473 21.306738 -8.862673 -26.730265 0.000000 0.000000 0.000000 -15.727859 -30.847480 11.903806 -19.330563 -31.847121 0.643533 39.236992 -71.086581 -27.434684 0.000000 0.000000 0.000000 25.649138 11.331281 10.197387 27.274419 55.365112 6.531518 -20.021863 64.466331 -6.479465 0.000000 0.000000 0.000000 
0.000956 0.924397 -0.005747 0.039385 13.660458 9.524414 7.884038 -1.469534 -22.215685 -12.593227 1.553484 12.563025 14.774582 27.951253 14.475579 0.000000 0.000000 0.000000 -7.125613 0.117775 -29.348368 6.085337 -1.607323 17.274678 -5.273139 -13.276940 14.416888 0.000000 0.000000 0.000000 7.380549 -6.315146 37.180619 -4.000119 1.766543 -22.007667 -5.824173 6.317103 24.987396 21.180980 -8.722481 -26.940428 0.000000 0.000000 0.000000 -15.591126 -30.998131 11.976582 -18.633380 -31.863191 0.526581 39.354124 -70.699817 -27.339190 0.000000 0.000000 0.000000 25.572284 11.451070 10.227886 27.009937 55.744302 6.536902 -19.711546 63.484312 -6.241624 0.000000 0.000000 0.000000 
0.001072 0.924032 -0.006241 0.073120 13.599561 9.523120 7.893216 -1.459275 -22.132303 -12.704061 1.566776 12.390866 14.816779 28.005946 14.381891 0.000000 0.000000 0.000000 -7.051854 0.144462 -29.350373 5.877724 -1.538745 17.238437 -5.261012 -13.258598 14.290077 0.000000 0.000000 0.000000 7.329155 -6.328497 37.381213 -3.864315 1.734280 -22.065015 -5.842218 6.365694 24.887391 21.019002 -8.627720 -26.881786 0.000000 0.000000 0.000000 -15.132422 -31.192657 12.020302 -17.806092 -32.494992 0.425165 40.638309 -70.236712 -28.078569 0.000000 0.000000 0.000000 25.304046 11.652367 10.290830 26.744852 56.420096 6.645402 -20.018793 62.098581 -6.305113 0.000000 0.000000 0.000000 
